<svg xmlns="http://www.w3.org/2000/svg" fill="none" viewBox="0 0 109 72" height="72" width="109">
<g clip-path="url(#clip0_620_1390)">
<path stroke-miterlimit="10" stroke-width="0.762633" stroke="black" d="M46.4036 9.86774H36.9384V0.790039"></path>
<path stroke-miterlimit="10" stroke-width="0.762633" stroke="black" d="M36.9384 9.8669C41.023 4.83634 47.3462 1.5835 54.4943 1.5835C66.748 1.5835 76.6845 11.1529 76.6845 22.9539C76.6845 34.7549 66.748 44.3244 54.4943 44.3244C42.2405 44.3244 32.3433 34.7171 32.3433 22.9161"></path>
<path stroke-miterlimit="10" stroke-width="0.762633" stroke="black" d="M49.8991 14.9736C51.6664 14.9736 53.0803 15.5788 54.2586 16.7135C55.4368 17.8482 54.6121 16.827 54.7299 16.7135C56.026 15.5032 57.5577 14.898 59.4036 15.0115C60.7782 15.0871 61.9957 15.5788 63.0169 16.4866C64.1166 17.4322 64.745 18.5669 64.9413 19.9664C65.0984 20.9876 64.9413 22.0089 64.745 22.9923C64.3522 24.543 63.606 25.9047 62.6634 27.1907C61.4459 28.8171 59.9534 30.1788 58.3039 31.427C57.5969 31.9565 56.8507 32.486 56.1045 32.9399C55.1619 33.5451 53.9051 33.5451 52.9232 32.9399C51.9021 32.2969 50.9202 31.6161 49.9776 30.8596C49.2314 30.2544 48.4852 29.6114 47.8175 28.8928C46.2858 27.342 45.0683 25.6021 44.4006 23.5218C43.9686 22.1223 43.8115 20.7228 44.2042 19.2477C44.4006 18.4912 44.7934 17.8104 45.3039 17.2052C46.5214 15.7679 48.1317 15.0871 49.8991 15.0115V14.9736Z"></path>
</g>
<path fill="#4A4947" d="M5.03803 67.8003H4.09599L7.4899 58.5606H8.63841L12.071 67.8003H11.1032L10.1999 65.3484H5.94135L5.03803 67.8003ZM7.94156 59.864L6.22525 64.5354H9.90306L8.17384 59.864C8.13513 59.7349 8.07061 59.5801 8.0577 59.4897C8.0448 59.5672 7.99318 59.7349 7.94156 59.864ZM12.6328 66.0453H13.4845C13.4845 66.7679 14.0265 67.2196 14.904 67.2196C15.8718 67.2196 16.4396 66.8066 16.4396 66.1356C16.4396 65.6194 16.1815 65.3226 15.446 65.1419L14.3749 64.871C13.2909 64.6 12.7618 64.0322 12.7618 63.1805C12.7618 62.0836 13.6781 61.3867 15.0201 61.3867C16.3364 61.3867 17.1881 62.1094 17.2268 63.2708H16.3622C16.3364 62.5481 15.8331 62.1223 14.9943 62.1223C14.1168 62.1223 13.6264 62.4965 13.6264 63.1675C13.6264 63.645 13.962 63.9805 14.6459 64.1483L15.717 64.4193C16.801 64.6903 17.2913 65.1936 17.2913 66.0969C17.2913 67.2196 16.3364 67.9551 14.9169 67.9551C13.5103 67.9551 12.6328 67.2067 12.6328 66.0453ZM18.2281 66.0453H19.0798C19.0798 66.7679 19.6218 67.2196 20.4993 67.2196C21.4672 67.2196 22.035 66.8066 22.035 66.1356C22.035 65.6194 21.7769 65.3226 21.0413 65.1419L19.9702 64.871C18.8863 64.6 18.3572 64.0322 18.3572 63.1805C18.3572 62.0836 19.2734 61.3867 20.6155 61.3867C21.9317 61.3867 22.7834 62.1094 22.8222 63.2708H21.9576C21.9317 62.5481 21.4285 62.1223 20.5897 62.1223C19.7122 62.1223 19.2218 62.4965 19.2218 63.1675C19.2218 63.645 19.5573 63.9805 20.2412 64.1483L21.3123 64.4193C22.3963 64.6903 22.8867 65.1936 22.8867 66.0969C22.8867 67.2196 21.9317 67.9551 20.5122 67.9551C19.1056 67.9551 18.2281 67.2067 18.2281 66.0453ZM28.7401 61.5545H29.6305V67.8003H28.8563L28.7401 66.7421C28.3917 67.4648 27.5271 67.9551 26.5463 67.9551C25.0752 67.9551 24.2751 66.9486 24.2751 65.4258V61.5416H25.1785V65.1419C25.1785 66.626 25.8366 67.1551 26.8302 67.1551C28.0304 67.1551 28.7401 66.355 28.7401 64.871V61.5545ZM34.7502 61.477V62.2771H34.2599C33.1113 62.2771 32.3758 63.0514 32.3758 64.2386V67.8003H31.4854V61.5545H32.3242L32.3887 62.5223C32.6339 61.8513 33.292 61.4125 34.1695 61.4125C34.3631 61.4125 34.5309 61.4254 34.7502 61.477ZM38.3141 67.9551C36.4817 67.9551 35.2557 66.6389 35.2557 64.6774C35.2557 62.7288 36.4688 61.3867 38.2496 61.3867C39.9401 61.3867 41.0886 62.5868 41.0886 64.3548V64.7935H36.1203C36.1849 66.3163 36.9849 67.1938 38.327 67.1938C39.3465 67.1938 40.0046 66.755 40.2369 65.9291H41.0886C40.7531 67.2454 39.7852 67.9551 38.3141 67.9551ZM38.2496 62.1481C37.0753 62.1481 36.301 62.9224 36.1461 64.1483H40.1982C40.1982 62.9482 39.4239 62.1481 38.2496 62.1481ZM44.9641 67.9551C43.1446 67.9551 42.0735 66.5615 42.0735 64.6903C42.0735 62.8062 43.1446 61.3867 45.0028 61.3867C46.0352 61.3867 46.8611 61.8384 47.2998 62.7417V58.3929H48.1903V67.8003H47.416L47.3256 66.5227C46.8869 67.4906 46.0094 67.9551 44.9641 67.9551ZM45.119 67.1422C46.4868 67.1422 47.2869 66.1098 47.2869 64.6645C47.2869 63.2321 46.4868 62.1868 45.119 62.1868C43.764 62.1868 42.9768 63.2321 42.9768 64.6645C42.9768 66.1098 43.764 67.1422 45.119 67.1422ZM53.8209 67.8003V58.5606H57.2019C58.9827 58.5606 60.0796 59.4639 60.0796 60.948C60.0796 62.0319 59.6021 62.7675 58.6472 63.1417C59.7183 63.4902 60.2603 64.2386 60.2603 65.3742C60.2603 66.8583 59.1505 67.8003 57.3955 67.8003H53.8209ZM57.189 59.3865H54.75V62.7675H57.3051C58.4665 62.7675 59.1247 62.1223 59.1247 61.0254C59.1247 59.993 58.4278 59.3865 57.189 59.3865ZM57.3955 63.5805H54.75V66.9615H57.3955C58.6085 66.9615 59.3182 66.3292 59.3182 65.2581C59.3182 64.2128 58.5956 63.5805 57.3955 63.5805ZM66.1306 61.5545H67.0211V67.8003H66.2468L66.1306 66.7421C65.7822 67.4648 64.9176 67.9551 63.9369 67.9551C62.4657 67.9551 61.6657 66.9486 61.6657 65.4258V61.5416H62.569V65.1419C62.569 66.626 63.2271 67.1551 64.2208 67.1551C65.4209 67.1551 66.1306 66.355 66.1306 64.871V61.5545ZM68.2436 70.5232V69.7876H68.9275C69.4695 69.7876 70.0115 69.7489 70.3212 68.9101L70.5922 68.1745L68.0629 61.5545H69.0049L71.0181 67.0002L72.9925 61.5545H73.9087L71.0439 69.2327C70.6825 70.2135 70.076 70.6135 69.1856 70.6135C68.8114 70.6135 68.5275 70.5877 68.2436 70.5232ZM78.7227 67.8003V58.5606H82.1037C83.8845 58.5606 84.9814 59.4639 84.9814 60.948C84.9814 62.0319 84.504 62.7675 83.549 63.1417C84.6201 63.4902 85.1621 64.2386 85.1621 65.3742C85.1621 66.8583 84.0523 67.8003 82.2973 67.8003H78.7227ZM82.0908 59.3865H79.6518V62.7675H82.2069C83.3683 62.7675 84.0265 62.1223 84.0265 61.0254C84.0265 59.993 83.3296 59.3865 82.0908 59.3865ZM82.2973 63.5805H79.6518V66.9615H82.2973C83.5103 66.9615 84.2201 66.3292 84.2201 65.2581C84.2201 64.2128 83.4974 63.5805 82.2973 63.5805ZM88.4386 67.9551C87.1095 67.9551 86.3223 67.2067 86.3223 66.1098C86.3223 64.9613 87.1998 64.2386 88.658 64.1225L90.7228 63.9547V63.7483C90.7228 62.5223 89.9872 62.1352 89.071 62.1352C87.987 62.1352 87.3418 62.6256 87.3418 63.4644H86.5288C86.5288 62.1997 87.5611 61.3867 89.0968 61.3867C90.5421 61.3867 91.6003 62.1094 91.6003 63.7612V67.8003H90.8518L90.7357 66.7034C90.3485 67.4906 89.4968 67.9551 88.4386 67.9551ZM88.6451 67.2325C89.9614 67.2325 90.7228 66.3163 90.7228 64.9613V64.6258L88.8774 64.7677C87.7031 64.871 87.2256 65.3871 87.2256 66.084C87.2256 66.8454 87.7934 67.2325 88.6451 67.2325ZM92.9483 64.6903C92.9483 62.7288 94.1484 61.3867 95.968 61.3867C97.4133 61.3867 98.4715 62.2255 98.7166 63.516H97.8262C97.5939 62.6514 96.8455 62.1739 95.9809 62.1739C94.7162 62.1739 93.8258 63.1417 93.8258 64.6774C93.8258 66.1614 94.6517 67.1551 95.9163 67.1551C96.8455 67.1551 97.5939 66.6389 97.8391 65.8388H98.7424C98.4456 67.1163 97.3358 67.9551 95.9163 67.9551C94.1484 67.9551 92.9483 66.6518 92.9483 64.6903ZM101.021 67.8003H100.13V58.3929H101.021V64.7806L104.118 61.5545H105.24L102.84 64.0451L105.253 67.8003H104.221L102.234 64.6774L101.021 65.9291V67.8003Z"></path>
<defs>
<clipPath id="clip0_620_1390">
<rect transform="translate(32.0685 0.601074)" fill="white" height="43.8756" width="45.166"></rect>
</clipPath>
</defs>
</svg>
