<svg xmlns="http://www.w3.org/2000/svg" fill="none" viewBox="0 0 113 77" height="77" width="113">
<g clip-path="url(#clip0_620_1389)">
<path stroke-linejoin="round" stroke-linecap="round" stroke-width="0.762633" stroke="#231F20" d="M41.7529 37.4766L38.6469 44.374L46.4933 41.6752L49.081 48.8695L52.5313 42.145"></path>
<path stroke-linejoin="round" stroke-linecap="round" stroke-width="0.762633" stroke="#231F20" d="M70.5507 34.9316L74.8031 44.3738L66.9567 41.6749L64.3689 48.8693L59.7421 39.8482"></path>
<path stroke-linejoin="round" stroke-linecap="round" stroke-width="0.762633" stroke="#231F20" d="M69.3024 19.2498C69.3024 26.2562 63.5859 31.9395 56.5302 31.9395C49.4745 31.9395 43.7581 26.26 43.7581 19.2498C43.7581 12.2396 49.4745 6.56006 56.5302 6.56006C59.5228 6.56006 62.2769 7.58245 64.4523 9.29647"></path>
<path stroke-linejoin="round" stroke-linecap="round" stroke-width="0.762633" stroke="#231F20" d="M51.2377 17.5993L56.1105 22.7827L74.8034 1.70703"></path>
<path stroke-linejoin="round" stroke-linecap="round" stroke-width="0.762633" stroke="#231F20" d="M56.5303 38.2918C67.1153 38.2918 75.6961 29.7663 75.6961 19.2496C75.6961 8.73297 67.1153 0.20752 56.5303 0.20752C45.9453 0.20752 37.3645 8.73297 37.3645 19.2496C37.3645 29.7663 45.9453 38.2918 56.5303 38.2918Z"></path>
</g>
<path fill="#4A4947" d="M9.02322 72.5233C6.4423 72.5233 4.68728 70.6005 4.68728 67.7615C4.68728 64.9225 6.46811 62.9868 9.07484 62.9868C11.0621 62.9868 12.6236 64.1869 12.9978 66.0194H12.0042C11.617 64.6902 10.4814 63.8772 9.03612 63.8772C7.0101 63.8772 5.65512 65.4258 5.65512 67.7615C5.65512 70.0843 7.0101 71.6329 9.03612 71.6329C10.4943 71.6329 11.6558 70.8457 12.0558 69.6069H13.0494C12.6236 71.349 11.0105 72.5233 9.02322 72.5233ZM17.0823 72.5362C15.2499 72.5362 14.0239 71.2199 14.0239 69.2584C14.0239 67.3098 15.237 65.9678 17.0178 65.9678C18.7083 65.9678 19.8568 67.1679 19.8568 68.9358V69.3746H14.8886C14.9531 70.8973 15.7532 71.7748 17.0952 71.7748C18.1147 71.7748 18.7728 71.3361 19.0051 70.5102H19.8568C19.5213 71.8265 18.5535 72.5362 17.0823 72.5362ZM17.0178 66.7291C15.8435 66.7291 15.0692 67.5034 14.9144 68.7294H18.9664C18.9664 67.5292 18.1921 66.7291 17.0178 66.7291ZM24.5453 66.0581V66.8582H24.0549C22.9064 66.8582 22.1709 67.6325 22.1709 68.8197V72.3813H21.2805V66.1355H22.1193L22.1838 67.1034C22.429 66.4323 23.0871 65.9936 23.9646 65.9936C24.1582 65.9936 24.3259 66.0065 24.5453 66.0581ZM27.4135 72.3813H26.5359V66.884H25.2842V66.1355H26.5359V64.1611H27.4135V66.1355H28.6652V66.884H27.4135V72.3813ZM30.2635 64.4192C29.9021 64.4192 29.6053 64.1224 29.6053 63.7611C29.6053 63.3998 29.9021 63.09 30.2635 63.09C30.6248 63.09 30.9345 63.3998 30.9345 63.7611C30.9345 64.1224 30.6248 64.4192 30.2635 64.4192ZM29.8247 72.3813V66.1355H30.7151V72.3813H29.8247ZM36.6885 72.3813V66.884H33.7205V72.3813H32.8301V66.884H31.8751V66.1355H32.8301V64.9225C32.8301 63.5159 33.5914 62.9739 34.5206 62.9739C34.7399 62.9739 35.0109 62.9868 35.2174 63.0255V63.7998H34.6754C33.9269 63.7998 33.7205 64.1869 33.7205 64.9225V66.1355H37.5789V72.3813H36.6885ZM37.1273 64.3547C36.766 64.3547 36.5079 64.0966 36.5079 63.7353C36.5079 63.3739 36.766 63.103 37.1273 63.103C37.4757 63.103 37.7467 63.3739 37.7467 63.7353C37.7467 64.0966 37.4757 64.3547 37.1273 64.3547ZM42.022 72.5362C40.1895 72.5362 38.9636 71.2199 38.9636 69.2584C38.9636 67.3098 40.1766 65.9678 41.9574 65.9678C43.6479 65.9678 44.7964 67.1679 44.7964 68.9358V69.3746H39.8282C39.8927 70.8973 40.6928 71.7748 42.0349 71.7748C43.0543 71.7748 43.7125 71.3361 43.9447 70.5102H44.7964C44.4609 71.8265 43.4931 72.5362 42.022 72.5362ZM41.9574 66.7291C40.7831 66.7291 40.0088 67.5034 39.854 68.7294H43.906C43.906 67.5292 43.1317 66.7291 41.9574 66.7291ZM48.6719 72.5362C46.8524 72.5362 45.7813 71.1425 45.7813 69.2713C45.7813 67.3873 46.8524 65.9678 48.7107 65.9678C49.743 65.9678 50.5689 66.4194 51.0077 67.3228V62.9739H51.8981V72.3813H51.1238L51.0335 71.1038C50.5947 72.0716 49.7172 72.5362 48.6719 72.5362ZM48.8268 71.7232C50.1947 71.7232 50.9948 70.6908 50.9948 69.2455C50.9948 67.8131 50.1947 66.7679 48.8268 66.7679C47.4718 66.7679 46.6846 67.8131 46.6846 69.2455C46.6846 70.6908 47.4718 71.7232 48.8268 71.7232ZM56.6641 69.8391V69.4778H57.5674V69.8391C57.5674 70.936 58.1611 71.6587 59.2838 71.6587C60.4581 71.6587 61.0001 70.9231 61.0001 69.8262V63.1417H61.9292V69.852C61.9292 71.5296 60.8452 72.5362 59.2838 72.5362C57.6191 72.5362 56.6641 71.4393 56.6641 69.8391ZM66.5331 72.5362C64.7007 72.5362 63.4747 71.2199 63.4747 69.2584C63.4747 67.3098 64.6877 65.9678 66.4686 65.9678C68.1591 65.9678 69.3076 67.1679 69.3076 68.9358V69.3746H64.3393C64.4038 70.8973 65.2039 71.7748 66.546 71.7748C67.5655 71.7748 68.2236 71.3361 68.4559 70.5102H69.3076C68.9721 71.8265 68.0042 72.5362 66.5331 72.5362ZM66.4686 66.7291C65.2943 66.7291 64.52 67.5034 64.3651 68.7294H68.4172C68.4172 67.5292 67.6429 66.7291 66.4686 66.7291ZM71.8837 72.3813L69.8189 66.1355H70.7351L71.9611 69.9037C72.103 70.3166 72.2192 70.7425 72.3482 71.2457C72.4515 70.7425 72.6579 70.1101 72.7225 69.9037L73.9613 66.1355H74.8775L76.1035 69.9037C76.2196 70.2392 76.3745 70.7812 76.4906 71.2457C76.6196 70.7296 76.6454 70.5747 76.8648 69.9037L78.1037 66.1355H79.0328L76.9164 72.3813H76.0518L74.7614 68.4584C74.6065 67.9938 74.5033 67.6067 74.4259 67.2324C74.3355 67.5679 74.2323 67.9422 74.0645 68.4584L72.7741 72.3813H71.8837ZM82.4874 72.5362C80.655 72.5362 79.429 71.2199 79.429 69.2584C79.429 67.3098 80.642 65.9678 82.4229 65.9678C84.1134 65.9678 85.2619 67.1679 85.2619 68.9358V69.3746H80.2936C80.3581 70.8973 81.1582 71.7748 82.5003 71.7748C83.5198 71.7748 84.1779 71.3361 84.4102 70.5102H85.2619C84.9264 71.8265 83.9585 72.5362 82.4874 72.5362ZM82.4229 66.7291C81.2486 66.7291 80.4743 67.5034 80.3194 68.7294H84.3715C84.3715 67.5292 83.5972 66.7291 82.4229 66.7291ZM87.6147 72.3813H86.7242V62.9739H87.6147V72.3813ZM90.4375 72.3813H89.5471V62.9739H90.4375V72.3813ZM94.9509 72.5362C93.1185 72.5362 91.8925 71.2199 91.8925 69.2584C91.8925 67.3098 93.1056 65.9678 94.8864 65.9678C96.5769 65.9678 97.7254 67.1679 97.7254 68.9358V69.3746H92.7571C92.8216 70.8973 93.6217 71.7748 94.9638 71.7748C95.9833 71.7748 96.6414 71.3361 96.8737 70.5102H97.7254C97.3899 71.8265 96.422 72.5362 94.9509 72.5362ZM94.8864 66.7291C93.7121 66.7291 92.9378 67.5034 92.7829 68.7294H96.835C96.835 67.5292 96.0607 66.7291 94.8864 66.7291ZM102.414 66.0581V66.8582H101.924C100.775 66.8582 100.039 67.6325 100.039 68.8197V72.3813H99.149V66.1355H99.9878L100.052 67.1034C100.298 66.4323 100.956 65.9936 101.833 65.9936C102.027 65.9936 102.195 66.0065 102.414 66.0581ZM103.154 75.1042V74.3687H103.838C104.38 74.3687 104.922 74.3299 105.232 73.4911L105.503 72.7556L102.974 66.1355H103.916L105.929 71.5813L107.903 66.1355H108.819L105.955 73.8138C105.593 74.7945 104.987 75.1945 104.096 75.1945C103.722 75.1945 103.438 75.1687 103.154 75.1042Z"></path>
<defs>
<clipPath id="clip0_620_1389">
<rect transform="translate(37.1753 0.0200195)" fill="white" height="49.0374" width="38.7137"></rect>
</clipPath>
</defs>
</svg>
