<svg xmlns="http://www.w3.org/2000/svg" fill="none" viewBox="0 0 152 72" height="72" width="152">
<g clip-path="url(#clip0_620_1391)">
<path stroke-miterlimit="10" stroke-width="0.762633" stroke="black" d="M90.8258 0.743164H60.543L55.4576 11.4473H95.9111L90.8258 0.743164Z"></path>
<path stroke-miterlimit="10" stroke-width="0.762633" stroke="black" d="M81.9932 29.5269C79.7373 31.7963 73.5813 37.8481 73.5813 37.8481C72.4342 36.7134 69.3754 33.6875 69.3754 33.6875"></path>
<path stroke-miterlimit="10" stroke-width="0.762633" stroke="black" d="M75.6843 44.2404C81.5726 44.2404 86.3521 39.5125 86.3521 33.6876C86.3521 27.8627 81.5726 23.1348 75.6843 23.1348C69.796 23.1348 65.0165 27.8627 65.0165 33.6876C65.0165 39.5125 69.796 44.2404 75.6843 44.2404Z"></path>
<path stroke-miterlimit="10" stroke-width="0.762633" stroke="black" d="M79.1638 11.4468H72.1666V18.3685H79.1638V11.4468Z"></path>
<path stroke-miterlimit="10" stroke-width="0.762633" stroke="black" d="M78.1696 0.780762H73.199L72.1666 11.4849H79.1638L78.1696 0.780762Z"></path>
<path stroke-miterlimit="10" stroke-width="0.762633" stroke="black" d="M61.843 37.8478H55.4576V11.4468H95.9111V37.8478H89.5257"></path>
</g>
<path fill="#4A4947" d="M10.8458 63.6885H7.06471V67.7534H6.13558V58.5137H11.5813V59.3654H7.06471V62.8497H10.8458V63.6885ZM15.823 61.4302V62.2303H15.3326C14.1841 62.2303 13.4485 63.0045 13.4485 64.1918V67.7534H12.5581V61.5076H13.3969L13.4614 62.4754C13.7066 61.8044 14.3648 61.3656 15.2423 61.3656C15.4359 61.3656 15.6036 61.3786 15.823 61.4302ZM19.3869 67.9083C17.5544 67.9083 16.3285 66.592 16.3285 64.6305C16.3285 62.6819 17.5415 61.3398 19.3223 61.3398C21.0128 61.3398 22.1614 62.54 22.1614 64.3079V64.7466H17.1931C17.2576 66.2694 18.0577 67.1469 19.3998 67.1469C20.4192 67.1469 21.0774 66.7081 21.3097 65.8823H22.1614C21.8258 67.1985 20.858 67.9083 19.3869 67.9083ZM19.3223 62.1012C18.148 62.1012 17.3738 62.8755 17.2189 64.1014H21.2709C21.2709 62.9013 20.4967 62.1012 19.3223 62.1012ZM26.2046 67.9083C24.3722 67.9083 23.1462 66.592 23.1462 64.6305C23.1462 62.6819 24.3593 61.3398 26.1401 61.3398C27.8306 61.3398 28.9791 62.54 28.9791 64.3079V64.7466H24.0108C24.0754 66.2694 24.8755 67.1469 26.2175 67.1469C27.237 67.1469 27.8951 66.7081 28.1274 65.8823H28.9791C28.6436 67.1985 27.6757 67.9083 26.2046 67.9083ZM26.1401 62.1012C24.9658 62.1012 24.1915 62.8755 24.0367 64.1014H28.0887C28.0887 62.9013 27.3144 62.1012 26.1401 62.1012ZM33.6204 60.914C33.6204 59.3654 34.8593 58.346 36.7175 58.346C38.3822 58.346 39.4791 59.2751 39.6211 60.8237H38.679C38.5758 59.7784 37.866 59.1848 36.7046 59.1848C35.4013 59.1848 34.5496 59.8558 34.5496 60.9011C34.5496 61.7141 35.027 62.2303 35.9949 62.4754L37.5821 62.8626C39.0274 63.211 39.7759 64.0369 39.7759 65.2886C39.7759 66.8888 38.5371 67.9083 36.6272 67.9083C34.8335 67.9083 33.6204 66.9662 33.5043 65.4564H34.4592C34.5108 66.4242 35.3625 67.0566 36.6272 67.0566C37.9822 67.0566 38.8468 66.3984 38.8468 65.3403C38.8468 64.5144 38.3822 63.9724 37.3886 63.7401L35.8271 63.353C34.3818 63.0045 33.6204 62.1786 33.6204 60.914ZM42.1436 67.7405H41.2532V58.346H42.1436V62.5916C42.5436 61.8431 43.305 61.3398 44.3503 61.3398C45.9892 61.3398 46.7247 62.3593 46.7247 63.9337V67.7534H45.8343V64.1272C45.8343 62.669 45.1504 62.1528 44.1825 62.1528C42.8404 62.1528 42.1436 63.1465 42.1436 64.3466V67.7405ZM48.9382 59.7913C48.5768 59.7913 48.28 59.4945 48.28 59.1332C48.28 58.7718 48.5768 58.4621 48.9382 58.4621C49.2995 58.4621 49.6092 58.7718 49.6092 59.1332C49.6092 59.4945 49.2995 59.7913 48.9382 59.7913ZM48.4994 67.7534V61.5076H49.3898V67.7534H48.4994ZM51.2467 70.4763V61.5076H52.021L52.1113 62.7722C52.55 61.8044 53.4276 61.3398 54.4728 61.3398C56.2795 61.3398 57.3634 62.7206 57.3634 64.6047C57.3634 66.4888 56.3182 67.9083 54.4728 67.9083C53.4146 67.9083 52.5758 67.4566 52.1371 66.5533V70.4763H51.2467ZM52.15 64.6305C52.15 66.0629 52.9501 67.1082 54.318 67.1082C55.6729 67.1082 56.4601 66.0629 56.4601 64.6305C56.4601 63.1852 55.6729 62.1528 54.318 62.1528C52.9501 62.1528 52.15 63.1852 52.15 64.6305ZM58.7828 70.4763V61.5076H59.557L59.6474 62.7722C60.0861 61.8044 60.9636 61.3398 62.0089 61.3398C63.8155 61.3398 64.8995 62.7206 64.8995 64.6047C64.8995 66.4888 63.8543 67.9083 62.0089 67.9083C60.9507 67.9083 60.1119 67.4566 59.6732 66.5533V70.4763H58.7828ZM59.6861 64.6305C59.6861 66.0629 60.4862 67.1082 61.854 67.1082C63.209 67.1082 63.9962 66.0629 63.9962 64.6305C63.9962 63.1852 63.209 62.1528 61.854 62.1528C60.4862 62.1528 59.6861 63.1852 59.6861 64.6305ZM66.7576 59.7913C66.3963 59.7913 66.0994 59.4945 66.0994 59.1332C66.0994 58.7718 66.3963 58.4621 66.7576 58.4621C67.1189 58.4621 67.4286 58.7718 67.4286 59.1332C67.4286 59.4945 67.1189 59.7913 66.7576 59.7913ZM66.3188 67.7534V61.5076H67.2092V67.7534H66.3188ZM69.9565 67.7534H69.0661V61.5076H69.8404L69.9694 62.5916C70.3824 61.7915 71.2083 61.3398 72.1116 61.3398C73.8279 61.3398 74.5376 62.3593 74.5376 63.9337V67.7534H73.6472V64.1272C73.6472 62.669 72.9891 62.1528 71.9567 62.1528C70.6792 62.1528 69.9565 63.082 69.9565 64.4886V67.7534ZM75.8865 64.4498C75.8865 62.7464 76.9834 61.3398 78.8158 61.3398C79.8998 61.3398 80.7257 61.8431 81.1257 62.7593L81.2161 61.5076H81.9903V67.5598C81.9903 69.4181 80.8031 70.6311 78.9707 70.6311C77.3705 70.6311 76.2478 69.7278 76.0026 68.218H76.893C77.0866 69.2245 77.8609 69.8182 78.9836 69.8182C80.2611 69.8182 81.1128 68.9535 81.1128 67.6502V66.1662C80.687 67.0437 79.8224 67.5598 78.7513 67.5598C76.9705 67.5598 75.8865 66.1532 75.8865 64.4498ZM76.7769 64.4369C76.7769 65.7145 77.5641 66.7598 78.8803 66.7598C80.2353 66.7598 81.0354 65.779 81.0354 64.4369C81.0354 63.1078 80.2611 62.127 78.8932 62.127C77.5512 62.127 76.7769 63.1723 76.7769 64.4369ZM87.621 67.7534V58.5137H91.002C92.7828 58.5137 93.8797 59.4171 93.8797 60.9011C93.8797 61.9851 93.4022 62.7206 92.4473 63.0949C93.5184 63.4433 94.0604 64.1918 94.0604 65.3274C94.0604 66.8114 92.9506 67.7534 91.1955 67.7534H87.621ZM90.9891 59.3396H88.5501V62.7206H91.1052C92.2666 62.7206 92.9248 62.0754 92.9248 60.9785C92.9248 59.9461 92.2279 59.3396 90.9891 59.3396ZM91.1955 63.5336H88.5501V66.9146H91.1955C92.4086 66.9146 93.1183 66.2823 93.1183 65.2112C93.1183 64.1659 92.3957 63.5336 91.1955 63.5336ZM95.1044 64.6305C95.1044 62.7206 96.4465 61.3398 98.2789 61.3398C100.111 61.3398 101.453 62.7206 101.453 64.6305C101.453 66.5275 100.111 67.9083 98.2789 67.9083C96.4465 67.9083 95.1044 66.5275 95.1044 64.6305ZM96.0077 64.6176C96.0077 66.0887 96.9369 67.1082 98.2789 67.1082C99.6081 67.1082 100.55 66.0887 100.55 64.6176C100.55 63.1723 99.6081 62.1399 98.2789 62.1399C96.9369 62.1399 96.0077 63.1723 96.0077 64.6176ZM104.247 67.7534H103.37V62.2561H102.118V61.5076H103.37V59.5332H104.247V61.5076H105.499V62.2561H104.247V67.7534ZM107.549 67.7405H106.658V58.346H107.549V62.5916C107.949 61.8431 108.71 61.3398 109.755 61.3398C111.394 61.3398 112.13 62.3593 112.13 63.9337V67.7534H111.239V64.1272C111.239 62.669 110.555 62.1528 109.588 62.1528C108.246 62.1528 107.549 63.1465 107.549 64.3466V67.7405ZM119.497 67.7534L116.748 58.5137H117.716L119.587 64.8628C119.716 65.3145 119.832 65.779 119.948 66.3855C120.103 65.7145 120.232 65.3145 120.374 64.8628L122.387 58.5137H123.355L125.368 64.8628C125.51 65.3274 125.639 65.7919 125.781 66.3855C125.923 65.6758 126.039 65.2241 126.142 64.8757L128.052 58.5137H128.994L126.22 67.7534H125.342L122.865 59.9074L120.387 67.7534H119.497ZM131.073 67.9083C129.744 67.9083 128.956 67.1598 128.956 66.0629C128.956 64.9144 129.834 64.1918 131.292 64.0756L133.357 63.9079V63.7014C133.357 62.4754 132.621 62.0883 131.705 62.0883C130.621 62.0883 129.976 62.5787 129.976 63.4175H129.163C129.163 62.1528 130.195 61.3398 131.731 61.3398C133.176 61.3398 134.234 62.0625 134.234 63.7143V67.7534H133.486L133.37 66.6565C132.983 67.4437 132.131 67.9083 131.073 67.9083ZM131.279 67.1856C132.596 67.1856 133.357 66.2694 133.357 64.9144V64.5789L131.512 64.7208C130.337 64.8241 129.86 65.3403 129.86 66.0371C129.86 66.7985 130.428 67.1856 131.279 67.1856ZM135.25 70.4763V69.7407H135.934C136.476 69.7407 137.018 69.702 137.328 68.8632L137.599 68.1277L135.07 61.5076H136.012L138.025 66.9533L139.999 61.5076H140.915L138.051 69.1858C137.689 70.1666 137.083 70.5666 136.192 70.5666C135.818 70.5666 135.534 70.5408 135.25 70.4763ZM141.39 65.9984H142.242C142.242 66.7211 142.784 67.1727 143.661 67.1727C144.629 67.1727 145.197 66.7598 145.197 66.0887C145.197 65.5725 144.939 65.2757 144.203 65.0951L143.132 64.8241C142.048 64.5531 141.519 63.9853 141.519 63.1336C141.519 62.0367 142.435 61.3398 143.777 61.3398C145.094 61.3398 145.945 62.0625 145.984 63.2239H145.119C145.094 62.5013 144.59 62.0754 143.751 62.0754C142.874 62.0754 142.384 62.4496 142.384 63.1207C142.384 63.5981 142.719 63.9337 143.403 64.1014L144.474 64.3724C145.558 64.6434 146.048 65.1467 146.048 66.05C146.048 67.1727 145.094 67.9083 143.674 67.9083C142.267 67.9083 141.39 67.1598 141.39 65.9984Z"></path>
<defs>
<clipPath id="clip0_620_1391">
<rect transform="translate(55.1517 0.554199)" fill="white" height="43.8756" width="41.2947"></rect>
</clipPath>
</defs>
</svg>
