<svg xmlns="http://www.w3.org/2000/svg" fill="none" viewBox="0 0 121 72" height="72" width="121">
<g clip-path="url(#clip0_620_1392)">
<path stroke-miterlimit="10" stroke-width="0.762633" stroke="black" d="M52.0395 9.6319H42.8025V0.554199"></path>
<path stroke-miterlimit="10" stroke-width="0.762633" stroke="black" d="M42.8024 9.63253C46.7666 4.60197 53.0015 1.34912 60.0062 1.34912C72.0143 1.34912 81.7516 10.9185 81.7516 22.7196C81.7516 34.5206 72.0143 44.09 60.0062 44.09C47.9982 44.09 38.2609 34.4827 38.2609 22.6817"></path>
<path stroke-linejoin="round" stroke-width="0.762633" stroke="black" d="M60.0063 34.7092L50.0381 28.9599V17.1211L60.0063 22.8703V34.7092Z"></path>
<path stroke-linejoin="round" stroke-width="0.762633" stroke="black" d="M60.0063 34.7092L69.9746 28.9599V17.1211L60.0063 22.8703V34.7092Z"></path>
<path stroke-linejoin="round" stroke-width="0.762633" stroke="black" d="M69.936 17.1208L59.9677 22.87L49.9995 17.1208L59.9677 11.8633L69.936 17.1208Z"></path>
<path stroke-linejoin="round" stroke-width="0.762633" stroke="black" d="M53.04 15.5322L62.8928 21.2057V24.9125L66.857 22.4917V18.9363L57.1967 13.3384"></path>
</g>
<path fill="#4A4947" d="M9.75339 63.6885H5.97235V67.7534H5.04322V58.5137H10.489V59.3654H5.97235V62.8497H9.75339V63.6885ZM14.7306 61.4302V62.2303H14.2403C13.0917 62.2303 12.3562 63.0045 12.3562 64.1918V67.7534H11.4658V61.5076H12.3046L12.3691 62.4754C12.6143 61.8044 13.2724 61.3656 14.1499 61.3656C14.3435 61.3656 14.5112 61.3786 14.7306 61.4302ZM18.2945 67.9083C16.4621 67.9083 15.2361 66.592 15.2361 64.6305C15.2361 62.6819 16.4492 61.3398 18.23 61.3398C19.9205 61.3398 21.069 62.54 21.069 64.3079V64.7466H16.1007C16.1653 66.2694 16.9653 67.1469 18.3074 67.1469C19.3269 67.1469 19.985 66.7081 20.2173 65.8823H21.069C20.7335 67.1985 19.7656 67.9083 18.2945 67.9083ZM18.23 62.1012C17.0557 62.1012 16.2814 62.8755 16.1265 64.1014H20.1786C20.1786 62.9013 19.4043 62.1012 18.23 62.1012ZM25.1123 67.9083C23.2798 67.9083 22.0539 66.592 22.0539 64.6305C22.0539 62.6819 23.2669 61.3398 25.0477 61.3398C26.7382 61.3398 27.8867 62.54 27.8867 64.3079V64.7466H22.9185C22.983 66.2694 23.7831 67.1469 25.1252 67.1469C26.1446 67.1469 26.8028 66.7081 27.035 65.8823H27.8867C27.5512 67.1985 26.5834 67.9083 25.1123 67.9083ZM25.0477 62.1012C23.8734 62.1012 23.0991 62.8755 22.9443 64.1014H26.9963C26.9963 62.9013 26.2221 62.1012 25.0477 62.1012ZM34.296 59.3525H32.4119V58.5137H35.1864V67.7534H34.296V59.3525ZM43.6258 65.7919H42.5418V67.7534H41.6385V65.7919H36.7864V64.966L41.303 58.5137H42.5418V64.966H43.6258V65.7919ZM37.7929 64.966H41.6385V59.4687L37.7929 64.966ZM51.8757 67.7534H49.0625V58.5137H51.8499C54.6372 58.5137 56.4955 60.372 56.4955 63.1336C56.4955 65.8952 54.6502 67.7534 51.8757 67.7534ZM51.8111 59.3654H49.9916V66.9017H51.837C54.0953 66.9017 55.5406 65.4306 55.5406 63.1336C55.5406 60.8237 54.0953 59.3654 51.8111 59.3654ZM59.774 67.9083C58.4448 67.9083 57.6576 67.1598 57.6576 66.0629C57.6576 64.9144 58.5351 64.1918 59.9934 64.0756L62.0581 63.9079V63.7014C62.0581 62.4754 61.3225 62.0883 60.4063 62.0883C59.3223 62.0883 58.6771 62.5787 58.6771 63.4175H57.8641C57.8641 62.1528 58.8965 61.3398 60.4321 61.3398C61.8774 61.3398 62.9356 62.0625 62.9356 63.7143V67.7534H62.1871L62.071 66.6565C61.6839 67.4437 60.8322 67.9083 59.774 67.9083ZM59.9805 67.1856C61.2967 67.1856 62.0581 66.2694 62.0581 64.9144V64.5789L60.2127 64.7208C59.0384 64.8241 58.5609 65.3403 58.5609 66.0371C58.5609 66.7985 59.1287 67.1856 59.9805 67.1856ZM63.9514 70.4763V69.7407H64.6354C65.1774 69.7407 65.7194 69.702 66.0291 68.8632L66.3001 68.1277L63.7708 61.5076H64.7128L66.7259 66.9533L68.7003 61.5076H69.6165L66.7517 69.1858C66.3904 70.1666 65.7839 70.5666 64.8935 70.5666C64.5192 70.5666 64.2353 70.5408 63.9514 70.4763ZM70.0911 65.9984H70.9428C70.9428 66.7211 71.4848 67.1727 72.3623 67.1727C73.3301 67.1727 73.8979 66.7598 73.8979 66.0887C73.8979 65.5725 73.6399 65.2757 72.9043 65.0951L71.8332 64.8241C70.7492 64.5531 70.2201 63.9853 70.2201 63.1336C70.2201 62.0367 71.1364 61.3398 72.4784 61.3398C73.7947 61.3398 74.6464 62.0625 74.6851 63.2239H73.8205C73.7947 62.5013 73.2914 62.0754 72.4526 62.0754C71.5751 62.0754 71.0847 62.4496 71.0847 63.1207C71.0847 63.5981 71.4203 63.9337 72.1042 64.1014L73.1753 64.3724C74.2593 64.6434 74.7496 65.1467 74.7496 66.05C74.7496 67.1727 73.7947 67.9083 72.3752 67.9083C70.9686 67.9083 70.0911 67.1598 70.0911 65.9984ZM80.9172 67.7534H79.9881V58.5137H83.4336C85.3048 58.5137 86.4404 59.5461 86.4404 61.185C86.4404 62.5142 85.7435 63.4433 84.5563 63.7659L86.5307 67.7534H85.4984L83.6143 63.9208H80.9172V67.7534ZM80.9172 59.3525V63.082H83.4594C84.737 63.082 85.4855 62.3851 85.4855 61.2108C85.4855 60.0107 84.6983 59.3525 83.4336 59.3525H80.9172ZM90.2149 67.9083C88.3824 67.9083 87.1565 66.592 87.1565 64.6305C87.1565 62.6819 88.3695 61.3398 90.1504 61.3398C91.8409 61.3398 92.9894 62.54 92.9894 64.3079V64.7466H88.0211C88.0856 66.2694 88.8857 67.1469 90.2278 67.1469C91.2472 67.1469 91.9054 66.7081 92.1377 65.8823H92.9894C92.6538 67.1985 91.686 67.9083 90.2149 67.9083ZM90.1504 62.1012C88.976 62.1012 88.2018 62.8755 88.0469 64.1014H92.099C92.099 62.9013 91.3247 62.1012 90.1504 62.1012ZM95.7824 67.7534H94.9049V62.2561H93.6532V61.5076H94.9049V59.5332H95.7824V61.5076H97.0342V62.2561H95.7824V67.7534ZM102.581 61.5076H103.472V67.7534H102.697L102.581 66.6952C102.233 67.4179 101.368 67.9083 100.387 67.9083C98.9163 67.9083 98.1162 66.9017 98.1162 65.379V61.4947H99.0195V65.0951C99.0195 66.5791 99.6777 67.1082 100.671 67.1082C101.871 67.1082 102.581 66.3081 102.581 64.8241V61.5076ZM108.591 61.4302V62.2303H108.101C106.952 62.2303 106.217 63.0045 106.217 64.1918V67.7534H105.326V61.5076H106.165L106.23 62.4754C106.475 61.8044 107.133 61.3656 108.011 61.3656C108.204 61.3656 108.372 61.3786 108.591 61.4302ZM110.665 67.7534H109.775V61.5076H110.549L110.678 62.5916C111.091 61.7915 111.917 61.3398 112.82 61.3398C114.537 61.3398 115.247 62.3593 115.247 63.9337V67.7534H114.356V64.1272C114.356 62.669 113.698 62.1528 112.666 62.1528C111.388 62.1528 110.665 63.082 110.665 64.4886V67.7534Z"></path>
<defs>
<clipPath id="clip0_620_1392">
<rect transform="translate(38.0685 0.554199)" fill="white" height="43.8756" width="43.8756"></rect>
</clipPath>
</defs>
</svg>
